REM DIRINDEX 1\2,1\3
REM DIRNAME cjc102,folder01,folder02
TITLE ""
FILE "CD2Track15.mp3" MP3
  TRACK 01 AUDIO
    TITLE "0:"
    INDEX 01 00:00:00
  TRACK 02 AUDIO
    TITLE "2:cjc102_2953"
    INDEX 01 00:00:27
  TRACK 03 AUDIO
    TITLE "0:"
    INDEX 01 00:01:17
  TRACK 04 AUDIO
    TITLE "3:cjc102_2954"
    INDEX 01 00:01:48
  TRACK 05 AUDIO
    TITLE "0:"
    INDEX 01 00:03:14
  TRACK 06 AUDIO
    TITLE "3:cjc102_2955"
    INDEX 01 00:03:21
  TRACK 07 AUDIO
    TITLE "0:"
    INDEX 01 00:08:09
  TRACK 08 AUDIO
    TITLE "2:cjc102_2956"
    INDEX 01 00:08:11
  TRACK 09 AUDIO
    TITLE "0:"
    INDEX 01 00:09:14
  TRACK 10 AUDIO
    TITLE "3:cjc102_2957"
    INDEX 01 00:10:45
  TRACK 11 AUDIO
    TITLE "0:"
    INDEX 01 00:11:42
  TRACK 12 AUDIO
    TITLE "2:cjc102_2958"
    INDEX 01 00:11:58
  TRACK 13 AUDIO
    TITLE "0:"
    INDEX 01 00:12:73
  TRACK 14 AUDIO
    TITLE "3:cjc102_2959"
    INDEX 01 00:13:59
  TRACK 15 AUDIO
    TITLE "0:"
    INDEX 01 00:14:33
  TRACK 16 AUDIO
    TITLE "2:cjc102_2960"
    INDEX 01 00:14:35
  TRACK 17 AUDIO
    TITLE "0:"
    INDEX 01 00:15:28
  TRACK 18 AUDIO
    TITLE "3:cjc102_2961"
    INDEX 01 00:17:00
  TRACK 19 AUDIO
    TITLE "0:"
    INDEX 01 00:17:63
  TRACK 20 AUDIO
    TITLE "2:cjc102_2962"
    INDEX 01 00:17:67
  TRACK 21 AUDIO
    TITLE "0:"
    INDEX 01 00:18:56
  TRACK 22 AUDIO
    TITLE "3:cjc102_2963"
    INDEX 01 00:20:04
  TRACK 23 AUDIO
    TITLE "0:"
    INDEX 01 00:20:73
  TRACK 24 AUDIO
    TITLE "2:cjc102_2964"
    INDEX 01 00:21:23
  TRACK 25 AUDIO
    TITLE "0:"
    INDEX 01 00:22:40
  TRACK 26 AUDIO
    TITLE "3:cjc102_2965"
    INDEX 01 00:23:50
  TRACK 27 AUDIO
    TITLE "0:"
    INDEX 01 00:24:29
  TRACK 28 AUDIO
    TITLE "2:cjc102_2966"
    INDEX 01 00:25:05
  TRACK 29 AUDIO
    TITLE "0:"
    INDEX 01 00:26:18
  TRACK 30 AUDIO
    TITLE "3:cjc102_2967"
    INDEX 01 00:27:32
  TRACK 31 AUDIO
    TITLE "0:"
    INDEX 01 00:28:29
  TRACK 32 AUDIO
    TITLE "2:cjc102_2968"
    INDEX 01 00:28:49
  TRACK 33 AUDIO
    TITLE "0:"
    INDEX 01 00:29:64
  TRACK 34 AUDIO
    TITLE "3:cjc102_2969"
    INDEX 01 00:31:18
  TRACK 35 AUDIO
    TITLE "0:"
    INDEX 01 00:32:13
  TRACK 36 AUDIO
    TITLE "2:cjc102_2970"
    INDEX 01 00:32:19
  TRACK 37 AUDIO
    TITLE "0:"
    INDEX 01 00:33:34
  TRACK 38 AUDIO
    TITLE "3:cjc102_2971"
    INDEX 01 00:35:12
  TRACK 39 AUDIO
    TITLE "0:"
    INDEX 01 00:36:07
  TRACK 40 AUDIO
    TITLE "2:cjc102_2972"
    INDEX 01 00:36:29
  TRACK 41 AUDIO
    TITLE "0:"
    INDEX 01 00:37:32
  TRACK 42 AUDIO
    TITLE "3:cjc102_2973"
    INDEX 01 00:38:20
  TRACK 43 AUDIO
    TITLE "0:"
    INDEX 01 00:39:13
  TRACK 44 AUDIO
    TITLE "2:cjc102_2974"
    INDEX 01 00:39:68
  TRACK 45 AUDIO
    TITLE "0:"
    INDEX 01 00:41:06
  TRACK 46 AUDIO
    TITLE "3:cjc102_2975"
    INDEX 01 00:41:67
  TRACK 47 AUDIO
    TITLE "0:"
    INDEX 01 00:42:61
  TRACK 48 AUDIO
    TITLE "2:cjc102_2976"
    INDEX 01 00:43:21
  TRACK 49 AUDIO
    TITLE "0:"
    INDEX 01 00:44:44
  TRACK 50 AUDIO
    TITLE "3:cjc102_2977"
    INDEX 01 00:45:53
  TRACK 51 AUDIO
    TITLE "0:"
    INDEX 01 00:46:70
  TRACK 52 AUDIO
    TITLE "2:cjc102_2978"
    INDEX 01 00:47:30
  TRACK 53 AUDIO
    TITLE "0:"
    INDEX 01 00:48:38
  TRACK 54 AUDIO
    TITLE "3:cjc102_2979"
    INDEX 01 00:49:21
  TRACK 55 AUDIO
    TITLE "0:"
    INDEX 01 00:50:31
  TRACK 56 AUDIO
    TITLE "2:cjc102_2980"
    INDEX 01 00:51:05
  TRACK 57 AUDIO
    TITLE "0:"
    INDEX 01 00:52:16
  TRACK 58 AUDIO
    TITLE "3:cjc102_2981"
    INDEX 01 00:53:02
  TRACK 59 AUDIO
    TITLE "0:"
    INDEX 01 00:54:19
  TRACK 60 AUDIO
    TITLE "2:cjc102_2982"
    INDEX 01 00:54:40
  TRACK 61 AUDIO
    TITLE "0:"
    INDEX 01 00:55:44
  TRACK 62 AUDIO
    TITLE "3:cjc102_2983"
    INDEX 01 00:56:06
  TRACK 63 AUDIO
    TITLE "0:"
    INDEX 01 00:57:23
  TRACK 64 AUDIO
    TITLE "2:cjc102_2984"
    INDEX 01 00:57:60
  TRACK 65 AUDIO
    TITLE "0:"
    INDEX 01 00:58:69
  TRACK 66 AUDIO
    TITLE "3:cjc102_2985"
    INDEX 01 00:59:43
  TRACK 67 AUDIO
    TITLE "0:"
    INDEX 01 01:00:53
  TRACK 68 AUDIO
    TITLE "2:cjc102_2986"
    INDEX 01 01:01:54
  TRACK 69 AUDIO
    TITLE "0:"
    INDEX 01 01:02:63
  TRACK 70 AUDIO
    TITLE "2:cjc102_2987"
    INDEX 01 01:03:45
  TRACK 71 AUDIO
    TITLE "0:"
    INDEX 01 01:04:54
  TRACK 72 AUDIO
    TITLE "3:cjc102_2988"
    INDEX 01 01:06:06
  TRACK 73 AUDIO
    TITLE "0:"
    INDEX 01 01:07:17
  TRACK 74 AUDIO
    TITLE "2:cjc102_2989"
    INDEX 01 01:07:43
  TRACK 75 AUDIO
    TITLE "0:"
    INDEX 01 01:08:54
  TRACK 76 AUDIO
    TITLE "2:cjc102_2990"
    INDEX 01 01:09:26
  TRACK 77 AUDIO
    TITLE "0:"
    INDEX 01 01:10:33
  TRACK 78 AUDIO
    TITLE "3:cjc102_2991"
    INDEX 01 01:12:05
  TRACK 79 AUDIO
    TITLE "0:"
    INDEX 01 01:13:26
  TRACK 80 AUDIO
    TITLE "2:cjc102_2992"
    INDEX 01 01:13:45
  TRACK 81 AUDIO
    TITLE "0:"
    INDEX 01 01:14:41
  TRACK 82 AUDIO
    TITLE "2:cjc102_2993"
    INDEX 01 01:15:39
  TRACK 83 AUDIO
    TITLE "0:"
    INDEX 01 01:16:32
  TRACK 84 AUDIO
    TITLE "3:cjc102_2994"
    INDEX 01 01:17:37
  TRACK 85 AUDIO
    TITLE "0:"
    INDEX 01 01:18:62
  TRACK 86 AUDIO
    TITLE "2:cjc102_2995"
    INDEX 01 01:19:21
  TRACK 87 AUDIO
    TITLE "0:"
    INDEX 01 01:20:32
  TRACK 88 AUDIO
    TITLE "2:cjc102_2996"
    INDEX 01 01:21:10
  TRACK 89 AUDIO
    TITLE "0:"
    INDEX 01 01:22:17
  TRACK 90 AUDIO
    TITLE "3:cjc102_2997"
    INDEX 01 01:23:38
  TRACK 91 AUDIO
    TITLE "0:"
    INDEX 01 01:24:61
  TRACK 92 AUDIO
    TITLE "2:cjc102_2998"
    INDEX 01 01:25:15
  TRACK 93 AUDIO
    TITLE "0:"
    INDEX 01 01:26:17
  TRACK 94 AUDIO
    TITLE "2:cjc102_2999"
    INDEX 01 01:27:01
  TRACK 95 AUDIO
    TITLE "0:"
    INDEX 01 01:27:73
  TRACK 96 AUDIO
    TITLE "3:cjc102_3000"
    INDEX 01 01:28:57
  TRACK 97 AUDIO
    TITLE "0:"
    INDEX 01 01:29:68
  TRACK 98 AUDIO
    TITLE "2:cjc102_3001"
    INDEX 01 01:30:32
  TRACK 99 AUDIO
    TITLE "0:"
    INDEX 01 01:32:31
  TRACK 100 AUDIO
    TITLE "3:cjc102_3002"
    INDEX 01 01:34:08
  TRACK 101 AUDIO
    TITLE "0:"
    INDEX 01 01:35:37
  TRACK 102 AUDIO
    TITLE "2:cjc102_3003"
    INDEX 01 01:35:47
  TRACK 103 AUDIO
    TITLE "0:"
    INDEX 01 01:39:08
  TRACK 104 AUDIO
    TITLE "3:cjc102_3004"
    INDEX 01 01:40:03
  TRACK 105 AUDIO
    TITLE "0:"
    INDEX 01 01:41:12
  TRACK 106 AUDIO
    TITLE "2:cjc102_3005"
    INDEX 01 01:41:14
  TRACK 107 AUDIO
    TITLE "0:"
    INDEX 01 01:44:72
